<svg width="41" height="46" viewBox="0 0 41 46" fill="none" xmlns="http://www.w3.org/2000/svg">
<path d="M7.35519 18.9596C7.35397 16.1526 8.22375 13.4149 9.84369 11.127C11.4636 8.83898 13.7533 7.11435 16.3944 6.19272C16.2922 5.54944 16.3301 4.89154 16.5057 4.26442C16.6813 3.6373 16.9903 3.05588 17.4114 2.56029C17.8326 2.06469 18.3558 1.66671 18.945 1.39381C19.5343 1.12091 20.1754 0.979584 20.8244 0.979584C21.4733 0.979584 22.1145 1.12091 22.7037 1.39381C23.2929 1.66671 23.8161 2.06469 24.2373 2.56029C24.6584 3.05588 24.9674 3.6373 25.143 4.26442C25.3186 4.89154 25.3565 5.54944 25.2543 6.19272C27.8913 7.11813 30.176 8.84437 31.7917 11.132C33.4074 13.4197 34.2739 16.1554 34.2711 18.9596V32.4696L41.0001 36.9729V39.2246H0.626221V36.9729L7.35519 32.4696V18.9596ZM25.2991 41.4763C25.2991 42.6706 24.8265 43.8161 23.9852 44.6606C23.1439 45.5051 22.0029 45.9796 20.8131 45.9796C19.6234 45.9796 18.4824 45.5051 17.6411 44.6606C16.7998 43.8161 16.3272 42.6706 16.3272 41.4763H25.2991Z" fill="#04A7C3"/>
</svg>
