<svg width="37" height="41" viewBox="0 0 37 41" fill="none" xmlns="http://www.w3.org/2000/svg">
<path d="M18.5 24.0332C17.9333 24.0332 17.4587 23.8412 17.076 23.4572C16.692 23.0745 16.5 22.5999 16.5 22.0332C16.5 21.4665 16.692 20.9912 17.076 20.6072C17.4587 20.2245 17.9333 20.0332 18.5 20.0332C19.0667 20.0332 19.542 20.2245 19.926 20.6072C20.3087 20.9912 20.5 21.4665 20.5 22.0332C20.5 22.5999 20.3087 23.0745 19.926 23.4572C19.542 23.8412 19.0667 24.0332 18.5 24.0332ZM10.5 24.0332C9.93333 24.0332 9.458 23.8412 9.074 23.4572C8.69133 23.0745 8.5 22.5999 8.5 22.0332C8.5 21.4665 8.69133 20.9912 9.074 20.6072C9.458 20.2245 9.93333 20.0332 10.5 20.0332C11.0667 20.0332 11.542 20.2245 11.926 20.6072C12.3087 20.9912 12.5 21.4665 12.5 22.0332C12.5 22.5999 12.3087 23.0745 11.926 23.4572C11.542 23.8412 11.0667 24.0332 10.5 24.0332ZM26.5 24.0332C25.9333 24.0332 25.4587 23.8412 25.076 23.4572C24.692 23.0745 24.5 22.5999 24.5 22.0332C24.5 21.4665 24.692 20.9912 25.076 20.6072C25.4587 20.2245 25.9333 20.0332 26.5 20.0332C27.0667 20.0332 27.5413 20.2245 27.924 20.6072C28.308 20.9912 28.5 21.4665 28.5 22.0332C28.5 22.5999 28.308 23.0745 27.924 23.4572C27.5413 23.8412 27.0667 24.0332 26.5 24.0332ZM18.5 32.0332C17.9333 32.0332 17.4587 31.8412 17.076 31.4572C16.692 31.0745 16.5 30.5999 16.5 30.0332C16.5 29.4665 16.692 28.9919 17.076 28.6092C17.4587 28.2252 17.9333 28.0332 18.5 28.0332C19.0667 28.0332 19.542 28.2252 19.926 28.6092C20.3087 28.9919 20.5 29.4665 20.5 30.0332C20.5 30.5999 20.3087 31.0745 19.926 31.4572C19.542 31.8412 19.0667 32.0332 18.5 32.0332ZM10.5 32.0332C9.93333 32.0332 9.458 31.8412 9.074 31.4572C8.69133 31.0745 8.5 30.5999 8.5 30.0332C8.5 29.4665 8.69133 28.9919 9.074 28.6092C9.458 28.2252 9.93333 28.0332 10.5 28.0332C11.0667 28.0332 11.542 28.2252 11.926 28.6092C12.3087 28.9919 12.5 29.4665 12.5 30.0332C12.5 30.5999 12.3087 31.0745 11.926 31.4572C11.542 31.8412 11.0667 32.0332 10.5 32.0332ZM26.5 32.0332C25.9333 32.0332 25.4587 31.8412 25.076 31.4572C24.692 31.0745 24.5 30.5999 24.5 30.0332C24.5 29.4665 24.692 28.9919 25.076 28.6092C25.4587 28.2252 25.9333 28.0332 26.5 28.0332C27.0667 28.0332 27.5413 28.2252 27.924 28.6092C28.308 28.9919 28.5 29.4665 28.5 30.0332C28.5 30.5999 28.308 31.0745 27.924 31.4572C27.5413 31.8412 27.0667 32.0332 26.5 32.0332ZM4.5 40.0332C3.4 40.0332 2.458 39.6419 1.674 38.8592C0.891333 38.0752 0.5 37.1332 0.5 36.0332V8.0332C0.5 6.9332 0.891333 5.99187 1.674 5.2092C2.458 4.4252 3.4 4.0332 4.5 4.0332H6.5V2.0332C6.5 1.46654 6.69133 0.991203 7.074 0.607203C7.458 0.224536 7.93333 0.0332031 8.5 0.0332031C9.06667 0.0332031 9.542 0.224536 9.926 0.607203C10.3087 0.991203 10.5 1.46654 10.5 2.0332V4.0332H26.5V2.0332C26.5 1.46654 26.692 0.991203 27.076 0.607203C27.4587 0.224536 27.9333 0.0332031 28.5 0.0332031C29.0667 0.0332031 29.5413 0.224536 29.924 0.607203C30.308 0.991203 30.5 1.46654 30.5 2.0332V4.0332H32.5C33.6 4.0332 34.542 4.4252 35.326 5.2092C36.1087 5.99187 36.5 6.9332 36.5 8.0332V36.0332C36.5 37.1332 36.1087 38.0752 35.326 38.8592C34.542 39.6419 33.6 40.0332 32.5 40.0332H4.5ZM4.5 36.0332H32.5V16.0332H4.5V36.0332Z" fill="#04A7C3"/>
</svg>
