<svg width="68" height="68" viewBox="0 0 68 68" fill="none" xmlns="http://www.w3.org/2000/svg">
<g filter="url(#filter0_d_3_1356)">
<path d="M14.8508 16.6769L19.0525 18.7778C19.8259 19.1156 20.6675 19.2678 21.5102 19.2222C22.3528 19.1766 23.1731 18.9345 23.9054 18.5152L27.8761 15.9311C28.5593 15.4352 29.1154 14.7845 29.4988 14.0323C29.8822 13.2801 30.0821 12.4477 30.0819 11.6034L29.8299 6.866C29.7379 6.0285 29.4505 5.22419 28.9907 4.5181C28.5309 3.81201 27.9116 3.22377 27.1828 2.80087L22.9811 0.647513C22.2092 0.305707 21.3676 0.150455 20.5246 0.194258C19.6815 0.23806 18.8605 0.479656 18.1281 0.899614L14.1576 3.48365C13.4756 3.98081 12.9204 4.63176 12.5372 5.38375C12.1539 6.13564 11.9532 6.96747 11.9517 7.81138L12.2038 12.5488C12.2854 13.3977 12.568 14.215 13.0283 14.9328C13.4886 15.6508 14.1134 16.2487 14.8508 16.6769Z" fill="#04A7C3"/>
<path d="M40.1974 22.8115L35.9957 20.6582C35.2242 20.3205 34.3843 20.1684 33.5433 20.214C32.7024 20.2595 31.8839 20.5017 31.1533 20.9208L27.1407 23.5048C26.4612 24.0043 25.9077 24.6558 25.5247 25.4072C25.1417 26.1586 24.9396 26.9892 24.9348 27.8325L25.187 32.5699C25.2789 33.4075 25.5663 34.2119 26.0261 34.9179C26.486 35.624 27.1052 36.2123 27.834 36.6351L32.0357 38.7359C32.8058 39.0776 33.6456 39.233 34.4871 39.1892C35.3285 39.1454 36.1476 38.9037 36.8781 38.4838L40.8592 35.8998C41.539 35.3981 42.0924 34.7447 42.4753 33.9916C42.8582 33.2385 43.0602 32.4064 43.0651 31.5615L42.813 26.8346C42.7166 26.0079 42.4304 25.2145 41.9767 24.5166C41.5229 23.8187 40.914 23.2352 40.1974 22.8115Z" fill="url(#paint0_linear_3_1356)"/>
<path d="M53.1596 42.7906L48.9579 40.6897C48.1859 40.3478 47.3444 40.1926 46.5014 40.2364C45.6583 40.2802 44.8373 40.5218 44.1049 40.9418L40.1345 43.5259C39.4536 44.0241 38.8993 44.6753 38.5162 45.427C38.133 46.1787 37.9317 47.0099 37.9285 47.8536L38.1807 52.591C38.2812 53.4151 38.5705 54.2049 39.0259 54.8989C39.4813 55.593 40.0908 56.1727 40.8067 56.5931L45.0084 58.6939C45.7817 59.0316 46.6233 59.1838 47.466 59.1383C48.3086 59.0927 49.1289 58.8506 49.8613 58.4313L53.8423 55.8473C54.5225 55.349 55.0756 54.6975 55.457 53.9456C55.8384 53.1937 56.0374 52.3626 56.0378 51.5196L55.8171 46.8662C55.7265 46.0256 55.4386 45.2182 54.9767 44.5099C54.5149 43.8017 53.8922 43.2125 53.1596 42.7906Z" fill="#006370"/>
<path d="M22.2038 31.0257L22.0042 27.3387C22.009 26.4953 22.211 25.6648 22.5941 24.9134C22.9771 24.1619 23.5305 23.5105 24.2101 23.011L31.9517 17.9795C32.6821 17.5604 33.5007 17.3182 34.3417 17.2726C35.1827 17.2271 36.0226 17.3793 36.7941 17.7169L40.0924 19.3975C40.8644 19.7393 41.7059 19.8947 42.549 19.8509C43.3921 19.8071 44.213 19.5654 44.9454 19.1454L48.916 16.5509C49.5974 16.0532 50.1521 15.4022 50.5353 14.6503C50.9185 13.8985 51.1194 13.0671 51.1218 12.2232L50.8697 7.49628C50.7794 6.65689 50.4926 5.85048 50.0328 5.1425C49.5729 4.43441 48.9528 3.8446 48.2227 3.42065L44.021 1.26729C43.2477 0.929581 42.4061 0.777375 41.5633 0.822963C40.7207 0.868551 39.9004 1.11067 39.1681 1.5299L35.1134 4.07191C34.4333 4.57023 33.8801 5.2217 33.4987 5.97359C33.1173 6.72548 32.9184 7.55658 32.9181 8.39964L33.1071 12.0866C33.1068 12.9298 32.9078 13.7609 32.5264 14.5128C32.145 15.2647 31.5918 15.9161 30.9118 16.4143L23.1702 21.4459C22.4378 21.8658 21.6169 22.1075 20.7738 22.1513C19.9307 22.1951 19.0892 22.0398 18.3172 21.698L15.0294 20.0278C14.2575 19.686 13.416 19.5307 12.5728 19.5745C11.7297 19.6183 10.9088 19.8599 10.1765 20.2799L6.20588 22.8639C5.52384 23.3611 4.9687 24.012 4.5854 24.764C4.2021 25.516 4.00158 26.3478 4 27.1917L4.2521 31.9291C4.34159 32.7688 4.62804 33.5755 5.08792 34.2837C5.5479 34.9919 6.16838 35.5815 6.89916 36.0047L11.1008 38.1055C11.8742 38.4433 12.7158 38.5955 13.5584 38.55C14.401 38.5044 15.2214 38.2622 15.9538 37.8429L19.9244 35.2589C20.6067 34.7785 21.1677 34.146 21.5634 33.4112C21.959 32.6765 22.1783 31.8598 22.2038 31.0257Z" fill="#006370"/>
<path d="M63.7901 27.4755C63.6965 26.6369 63.4085 25.8319 62.949 25.1243C62.4894 24.4167 61.871 23.8262 61.1431 23.3998L56.9414 21.299C56.1679 20.962 55.3263 20.8102 54.4838 20.8558C53.6413 20.9014 52.821 21.1431 52.0885 21.5616L48.1178 24.1456C47.437 24.6439 46.8828 25.2951 46.4996 26.0468C46.1165 26.7985 45.9151 27.6297 45.912 28.4734L46.1116 32.1708C46.1083 33.0144 45.907 33.8456 45.5239 34.5973C45.1408 35.349 44.5865 36.0002 43.9056 36.4986L36.1745 41.5196C35.4421 41.9388 34.6219 42.1809 33.7792 42.2265C32.9366 42.2721 32.095 42.1199 31.3215 41.7822L28.0232 40.1015C27.2517 39.7638 26.4118 39.6116 25.5708 39.6572C24.7298 39.7029 23.9114 39.9449 23.1808 40.3641L19.1682 42.9376C18.4887 43.4371 17.9353 44.0885 17.5522 44.84C17.1692 45.5913 16.9672 46.4219 16.9624 47.2654L17.2144 52.0027C17.3064 52.8403 17.5938 53.6446 18.0536 54.3507C18.5135 55.0568 19.1327 55.645 19.8616 56.0679L24.0632 58.2213C24.8333 58.563 25.6731 58.7182 26.5145 58.6744C27.356 58.6306 28.1751 58.3889 28.9057 57.9691L32.8867 55.385C33.5657 54.885 34.1187 54.2334 34.5016 53.4822C34.8846 52.7308 35.0869 51.9006 35.0927 51.0574L34.8931 47.3598C34.8954 46.516 35.0963 45.6846 35.4795 44.9328C35.8627 44.1809 36.4174 43.5299 37.0989 43.0321L44.8299 38.0007C45.5623 37.5807 46.3833 37.339 47.2264 37.2952C48.0694 37.2514 48.9109 37.4067 49.6829 37.7485L52.9707 39.4187C53.7426 39.7605 54.5843 39.9158 55.4273 39.872C56.2704 39.8282 57.0913 39.5866 57.8236 39.1666L61.8048 36.5826C62.4842 36.0837 63.037 35.4321 63.4183 34.6804C63.7997 33.9286 63.999 33.0977 64.0001 32.2549L63.7901 27.4755Z" fill="#04A7C3"/>
</g>
<defs>
<filter id="filter0_d_3_1356" x="0" y="0.187012" width="68" height="66.9591" filterUnits="userSpaceOnUse" color-interpolation-filters="sRGB">
<feFlood flood-opacity="0" result="BackgroundImageFix"/>
<feColorMatrix in="SourceAlpha" type="matrix" values="0 0 0 0 0 0 0 0 0 0 0 0 0 0 0 0 0 0 127 0" result="hardAlpha"/>
<feOffset dy="4"/>
<feGaussianBlur stdDeviation="2"/>
<feComposite in2="hardAlpha" operator="out"/>
<feColorMatrix type="matrix" values="0 0 0 0 0 0 0 0 0 0 0 0 0 0 0 0 0 0 0.25 0"/>
<feBlend mode="normal" in2="BackgroundImageFix" result="effect1_dropShadow_3_1356"/>
<feBlend mode="normal" in="SourceGraphic" in2="effect1_dropShadow_3_1356" result="shape"/>
</filter>
<linearGradient id="paint0_linear_3_1356" x1="29.2416" y1="22.7485" x2="39.7458" y2="36.404" gradientUnits="userSpaceOnUse">
<stop stop-color="#27F3FF"/>
<stop offset="1" stop-color="#006370"/>
</linearGradient>
</defs>
</svg>
