<svg width="50" height="51" viewBox="0 0 50 51" fill="none" xmlns="http://www.w3.org/2000/svg">
<path d="M25 0.479584C11.2 0.479584 0 11.6796 0 25.4796C0 39.2796 11.2 50.4796 25 50.4796C38.8 50.4796 50 39.2796 50 25.4796C50 11.6796 38.8 0.479584 25 0.479584ZM25 10.4796C29.825 10.4796 33.75 14.4046 33.75 19.2296C33.75 24.0546 29.825 27.9796 25 27.9796C20.175 27.9796 16.25 24.0546 16.25 19.2296C16.25 14.4046 20.175 10.4796 25 10.4796ZM25 45.4796C19.925 45.4796 13.925 43.4296 9.65 38.2796C14.029 34.8439 19.4341 32.9766 25 32.9766C30.5659 32.9766 35.971 34.8439 40.35 38.2796C36.075 43.4296 30.075 45.4796 25 45.4796Z" fill="#04A7C3"/>
</svg>
