<svg width="36" height="41" viewBox="0 0 36 41" fill="none" xmlns="http://www.w3.org/2000/svg">
<path d="M11.2692 18.4947C9.2291 18.4947 7.27253 17.6843 5.82995 16.2417C4.38736 14.7991 3.57692 12.8426 3.57692 10.8024V4.64859C3.57692 4.24056 3.73901 3.84925 4.02753 3.56073C4.31605 3.27221 4.70736 3.11013 5.11538 3.11013H6.65385C7.06187 3.11013 7.45318 2.94804 7.7417 2.65952C8.03022 2.371 8.19231 1.97969 8.19231 1.57166C8.19231 1.16364 8.03022 0.772326 7.7417 0.483808C7.45318 0.195291 7.06187 0.0332031 6.65385 0.0332031H5.11538C3.89131 0.0332031 2.71737 0.519466 1.85181 1.38502C0.986262 2.25057 0.5 3.42451 0.5 4.64859V10.8024C0.501978 12.5405 0.925803 14.2521 1.73508 15.7903C2.54435 17.3284 3.71488 18.6471 5.14615 19.6332C6.52127 20.8456 7.63648 22.324 8.42444 23.9792C9.2124 25.6345 9.65679 27.4322 9.73077 29.264C9.73077 32.1202 10.8654 34.8593 12.885 36.879C14.9046 38.8986 17.6438 40.0332 20.5 40.0332C23.3562 40.0332 26.0954 38.8986 28.115 36.879C30.1346 34.8593 31.2692 32.1202 31.2692 29.264V27.5101C32.7195 27.1357 33.9834 26.2452 34.824 25.0055C35.6646 23.7658 36.0243 22.2621 35.8356 20.7763C35.6468 19.2904 34.9227 17.9244 33.7988 16.9342C32.675 15.9441 31.2286 15.3978 29.7308 15.3978C28.233 15.3978 26.7866 15.9441 25.6627 16.9342C24.5389 17.9244 23.8147 19.2904 23.626 20.7763C23.4372 22.2621 23.7969 23.7658 24.6375 25.0055C25.4782 26.2452 26.7421 27.1357 28.1923 27.5101V29.264C28.1923 31.3041 27.3819 33.2607 25.9393 34.7033C24.4967 36.1458 22.5401 36.9563 20.5 36.9563C18.4599 36.9563 16.5033 36.1458 15.0607 34.7033C13.6181 33.2607 12.8077 31.3041 12.8077 29.264C12.8856 27.43 13.3348 25.6308 14.1281 23.9754C14.9214 22.32 16.0423 20.8428 17.4231 19.6332C18.8487 18.6437 20.0132 17.3235 20.817 15.7855C21.6208 14.2476 22.0399 12.5378 22.0385 10.8024V4.64859C22.0385 3.42451 21.5522 2.25057 20.6866 1.38502C19.8211 0.519466 18.6472 0.0332031 17.4231 0.0332031H15.8846C15.4766 0.0332031 15.0853 0.195291 14.7968 0.483808C14.5082 0.772326 14.3462 1.16364 14.3462 1.57166C14.3462 1.97969 14.5082 2.371 14.7968 2.65952C15.0853 2.94804 15.4766 3.11013 15.8846 3.11013H17.4231C17.8311 3.11013 18.2224 3.27221 18.5109 3.56073C18.7995 3.84925 18.9615 4.24056 18.9615 4.64859V10.8024C18.9615 11.8126 18.7626 12.8129 18.376 13.7462C17.9894 14.6794 17.4228 15.5274 16.7085 16.2417C15.9942 16.956 15.1462 17.5226 14.2129 17.9092C13.2797 18.2958 12.2794 18.4947 11.2692 18.4947ZM29.7308 24.6486C28.9147 24.6486 28.1321 24.3244 27.5551 23.7474C26.978 23.1703 26.6538 22.3877 26.6538 21.5717C26.6538 20.7556 26.978 19.973 27.5551 19.396C28.1321 18.8189 28.9147 18.4947 29.7308 18.4947C30.5468 18.4947 31.3294 18.8189 31.9065 19.396C32.4835 19.973 32.8077 20.7556 32.8077 21.5717C32.8077 22.3877 32.4835 23.1703 31.9065 23.7474C31.3294 24.3244 30.5468 24.6486 29.7308 24.6486Z" fill="#04A7C3"/>
</svg>
